<?xml version="1.0" standalone="no"?>
<!DOCTYPE svg PUBLIC "-//W3C//DTD SVG 20010904//EN"
 "http://www.w3.org/TR/2001/REC-SVG-20010904/DTD/svg10.dtd">
<svg version="1.0" xmlns="http://www.w3.org/2000/svg"
 width="512.000000pt" height="512.000000pt" viewBox="0 0 512.000000 512.000000"
 preserveAspectRatio="xMidYMid meet">
<metadata>
Created by potrace 1.16, written by Peter Selinger 2001-2019
</metadata>
<g transform="translate(0.000000,512.000000) scale(0.100000,-0.100000)"
fill="#000000" stroke="none">
<path d="M0 2560 l0 -2560 2560 0 2560 0 0 2560 0 2560 -2560 0 -2560 0 0
-2560z m1453 1144 c60 -20 67 -50 10 -39 -134 26 -288 21 -356 -11 -39 -19
-44 -37 -11 -42 10 -2 34 -10 52 -18 22 -10 37 -12 45 -6 7 6 35 6 67 2 30 -4
59 -5 63 -3 12 7 55 -24 62 -46 3 -11 18 -24 33 -29 36 -13 102 -74 102 -94 0
-9 9 -19 19 -23 11 -3 31 -15 45 -26 35 -27 37 -98 4 -129 -12 -11 -27 -21
-32 -21 -6 -1 -29 -3 -51 -4 l-40 -3 0 86 c-1 99 -14 128 -76 168 -48 30 -136
42 -181 23 -82 -33 -138 -101 -138 -169 0 -22 -6 -29 -27 -35 -17 -4 -29 -2
-31 4 -2 6 -11 11 -20 11 -9 0 -28 9 -42 20 -63 49 -87 13 -65 -102 38 -202
195 -338 393 -338 34 0 62 -3 62 -7 -1 -5 -25 -34 -55 -67 l-53 -59 -74 5
c-91 6 -156 37 -219 105 -46 49 -99 146 -99 182 0 11 -4 22 -9 25 -15 10 -25
99 -24 228 1 126 1 129 37 202 37 74 47 87 125 156 32 28 59 42 95 49 28 6 60
12 71 14 11 3 77 5 146 6 91 1 138 -3 172 -15z m2227 7 c0 -4 -29 -11 -65 -15
-64 -6 -166 -43 -179 -64 -8 -14 25 -32 57 -32 25 0 54 -27 76 -72 13 -25 12
-29 -19 -55 -20 -17 -50 -30 -74 -33 -39 -5 -40 -6 -40 -44 -1 -48 -23 -65
-60 -48 -36 16 -35 54 3 81 26 19 28 24 23 69 -2 28 1 59 8 72 21 39 -4 47
-50 15 -22 -15 -40 -31 -40 -34 0 -3 -11 -19 -25 -34 -25 -26 -26 -32 -28
-175 l-2 -147 37 -80 c47 -100 47 -101 -117 -54 -16 4 -42 11 -58 14 -22 4
-32 17 -51 59 -34 78 -46 143 -46 261 0 124 9 151 53 170 44 18 140 17 133 -1
-6 -15 -1 -19 37 -28 22 -5 27 -3 27 13 0 10 7 24 15 31 9 7 15 20 14 29 -1 9
-1 21 0 28 2 19 107 62 175 72 82 12 196 13 196 2z m289 -21 c92 -29 223 -96
256 -130 16 -17 26 -30 22 -30 -6 0 18 -70 43 -125 19 -43 34 -291 18 -311 -5
-7 -8 -16 -6 -20 1 -5 -2 -38 -6 -74 -13 -104 -44 -170 -114 -246 l-62 -67
-67 7 c-38 3 -122 11 -188 16 -140 13 -152 15 -159 38 -3 9 -22 41 -41 70 -19
30 -35 55 -35 56 0 2 25 6 55 10 93 11 152 26 172 45 11 11 33 26 50 34 41 22
88 80 126 157 31 62 32 70 31 181 -1 108 -3 119 -30 169 -66 121 -189 215
-299 227 -25 3 -45 10 -45 16 0 17 207 0 279 -23z m-223 -160 c8 0 17 -6 20
-14 3 -8 13 -12 22 -9 26 6 114 -47 160 -98 47 -52 58 -94 38 -143 -16 -39
-42 -56 -85 -56 -27 0 -31 4 -42 43 -7 25 -9 68 -5 105 7 63 6 64 -28 96 -19
18 -51 41 -73 51 -49 23 -64 35 -57 46 3 5 12 2 20 -6 9 -8 22 -15 30 -15z"/>
</g>
</svg>
